<?xml version="1.0" standalone="no"?>
<!DOCTYPE svg PUBLIC "-//W3C//DTD SVG 20010904//EN"
 "http://www.w3.org/TR/2001/REC-SVG-20010904/DTD/svg10.dtd">
<svg version="1.0" xmlns="http://www.w3.org/2000/svg"
 width="1042.000000pt" height="1042.000000pt" viewBox="0 0 1042.000000 1042.000000"
 preserveAspectRatio="xMidYMid meet">
<metadata>
Created by potrace 1.11, written by Peter Selinger 2001-2013
</metadata>
<g transform="translate(0.000000,1042.000000) scale(0.100000,-0.100000)"
fill="#000000" stroke="none">
<path d="M4845 9720 c-868 -75 -1675 -384 -2356 -901 -905 -688 -1523 -1700
-1713 -2804 -78 -460 -87 -954 -25 -1405 167 -1204 810 -2281 1796 -3007 1070
-789 2443 -1059 3748 -738 1174 289 2190 1051 2805 2105 749 1284 810 2884
160 4224 -532 1097 -1489 1934 -2650 2316 -273 90 -586 158 -900 196 -157 19
-707 27 -865 14z m650 -150 c293 -22 531 -60 804 -131 1541 -398 2750 -1621
3130 -3169 245 -999 128 -2058 -331 -2974 -98 -197 -144 -276 -274 -471 -673
-1015 -1758 -1707 -2964 -1890 -412 -63 -931 -61 -1338 5 -1214 197 -2281 890
-2955 1920 -669 1024 -874 2290 -562 3477 163 621 459 1194 874 1688 101 121
342 366 471 479 670 590 1514 958 2406 1051 253 26 513 31 739 15z"/>
<path d="M4890 9434 c-747 -66 -1384 -282 -1978 -670 -975 -638 -1638 -1630
-1846 -2764 -52 -282 -61 -399 -61 -775 1 -377 13 -522 71 -815 164 -832 576
-1591 1191 -2190 979 -956 2322 -1370 3678 -1135 1312 228 2452 1085 3045
2290 270 549 408 1113 427 1745 25 886 -222 1738 -719 2471 -155 229 -295 397
-512 615 -355 354 -691 597 -1121 809 -419 206 -829 329 -1320 396 -120 17
-215 21 -480 24 -181 1 -350 1 -375 -1z m400 -2054 l0 -1890 -85 0 -85 0 0
1890 0 1890 85 0 85 0 0 -1890z m-721 1836 c-2 -2 -42 -32 -89 -66 -521 -384
-964 -1211 -1194 -2230 -88 -390 -149 -847 -172 -1297 l-7 -133 -83 0 -84 0 0
38 c0 66 20 352 36 512 108 1100 440 2092 917 2740 116 158 317 380 344 380 4
0 71 13 148 29 129 27 195 37 184 27z m1457 -27 c81 -16 155 -34 163 -39 25
-13 183 -177 246 -255 304 -372 574 -918 748 -1515 167 -569 249 -1074 291
-1797 l6 -93 -84 0 -84 0 -6 73 c-3 39 -10 151 -16 247 -59 916 -298 1821
-656 2483 -89 163 -253 409 -359 534 -103 123 -240 252 -354 333 -56 40 -77
60 -63 60 12 0 87 -14 168 -31z m-2980 -1831 c-3 -13 -13 -51 -22 -85 l-16
-63 -659 0 c-363 0 -659 3 -659 7 0 4 21 43 47 85 l47 78 634 0 634 0 -6 -22z
m1904 -63 l0 -85 -705 0 c-388 0 -705 3 -705 6 0 10 41 147 47 157 2 4 310 7
684 7 l679 0 0 -85z m1900 18 c11 -38 23 -76 26 -85 5 -17 -33 -18 -705 -18
l-711 0 0 78 c0 43 3 82 7 85 3 4 311 7 684 7 l678 0 21 -67z m1833 -18 l48
-80 -657 -3 c-362 -1 -659 -1 -661 2 -5 4 -43 143 -43 156 0 7 208 9 633 8
l632 -3 48 -80z m565 -2062 l3 -83 -4041 0 -4040 0 0 85 0 85 4038 -2 4037 -3
3 -82z m-6134 -405 c57 -1288 422 -2465 985 -3173 81 -102 243 -266 333 -337
43 -34 77 -63 75 -64 -4 -4 -275 54 -314 67 -74 24 -327 344 -490 619 -434
733 -709 1781 -759 2888 l-7 152 85 0 85 0 7 -152z m2176 -1743 l0 -1896 -82
3 -83 3 -3 1880 c-1 1034 0 1886 3 1893 3 8 30 12 85 12 l80 0 0 -1895z m2185
1783 c-54 -982 -213 -1730 -516 -2441 -180 -420 -444 -836 -671 -1053 -51 -50
-57 -53 -163 -77 -60 -14 -128 -29 -150 -32 -22 -4 -49 -9 -60 -12 -11 -3 16
22 60 57 580 455 1046 1442 1235 2615 48 297 73 545 96 943 l6 112 85 0 85 0
-7 -112z m-4461 -1675 c9 -38 19 -76 22 -85 5 -17 -29 -18 -625 -18 l-630 0
-45 75 c-25 42 -46 80 -46 85 0 6 241 10 654 10 l654 0 16 -67z m1936 -18 l0
-85 -688 0 -689 0 -21 79 c-12 43 -22 81 -22 85 0 3 320 6 710 6 l710 0 0 -85z
m1934 59 c-4 -15 -14 -52 -23 -83 l-17 -56 -692 -3 -692 -2 0 78 c0 43 3 82 7
85 3 4 325 7 715 7 l708 0 -6 -26z m1846 20 c0 -4 -21 -42 -47 -85 l-47 -79
-628 0 c-521 0 -628 2 -628 14 0 7 4 26 10 42 5 16 14 48 20 72 l11 42 654 0
c360 0 655 -3 655 -6z m-5935 -348 c103 -27 180 -82 235 -168 74 -114 88 -243
39 -374 -17 -45 -38 -75 -93 -130 -83 -83 -149 -114 -261 -121 l-70 -5 -85 74
c-47 41 -127 115 -178 164 l-92 89 0 71 c0 126 47 235 136 313 100 88 241 121
369 87z m988 -1 c82 -21 133 -50 189 -106 104 -104 142 -256 99 -397 -22 -74
-102 -196 -124 -190 -28 9 -196 376 -283 616 l-34 92 48 0 c26 0 74 -7 105
-15z m1036 -14 c29 -11 71 -32 92 -46 l39 -25 0 -303 0 -302 -49 -33 c-225
-154 -532 -43 -613 221 -65 215 60 439 282 503 61 18 182 11 249 -15z m1044
-1 c71 -27 162 -108 200 -179 112 -205 32 -453 -181 -558 -71 -36 -82 -38
-166 -38 -99 0 -165 18 -223 62 l-33 24 0 319 0 319 43 25 c100 59 245 70 360
26z m917 20 c0 -16 -81 -230 -135 -355 -58 -137 -174 -365 -184 -365 -5 0 -29
23 -55 50 -85 91 -127 220 -107 332 36 206 199 346 404 347 47 1 77 -3 77 -9z
m1063 -20 c76 -29 169 -114 208 -191 40 -80 55 -177 40 -251 -11 -53 -18 -62
-114 -155 -56 -54 -124 -116 -151 -138 l-49 -40 -92 0 c-85 0 -96 2 -167 38
-124 61 -196 154 -224 288 -33 160 48 341 191 424 98 58 244 68 358 25z
m-4506 -860 c161 -56 275 -217 272 -385 -2 -81 -12 -111 -34 -107 -59 11 -491
248 -628 345 l-48 34 42 38 c106 95 254 123 396 75z m934 16 c85 -18 132 -42
197 -101 114 -102 159 -269 112 -415 -12 -39 -26 -73 -31 -75 -12 -8 -147 114
-226 203 -119 135 -281 357 -269 370 7 6 110 30 136 31 8 0 45 -6 81 -13z
m1981 -1 c37 -7 76 -19 88 -25 19 -10 18 -13 -30 -85 -89 -132 -204 -268 -329
-387 -67 -65 -128 -118 -136 -118 -16 0 -49 67 -66 133 -31 126 22 291 123
382 64 57 113 83 192 100 78 17 79 17 158 0z m1043 -12 c58 -20 115 -56 155
-98 l35 -37 -30 -24 c-61 -49 -336 -206 -497 -284 -91 -44 -168 -80 -171 -80
-8 0 -27 97 -27 140 0 29 11 57 44 107 24 37 64 105 90 150 43 74 53 85 101
108 94 44 205 51 300 18z m-2345 -385 l-1 -333 -58 62 c-70 73 -101 145 -108
249 -6 78 13 164 50 224 20 32 105 130 113 130 2 0 4 -150 4 -332z m564 235
c19 -27 45 -78 57 -116 40 -124 10 -279 -71 -369 l-39 -43 -1 288 c0 183 4
287 10 287 5 0 25 -21 44 -47z"/>
</g>
</svg>
