<svg id="_25_Crowdfunding" height="512" viewBox="0 0 64 64" width="512" xmlns="http://www.w3.org/2000/svg" data-name="25 Crowdfunding"><g fill="#84caff"><path d="m32 47a1 1 0 0 1 -1-1v-2a1 1 0 0 1 2 0v2a1 1 0 0 1 -1 1z"/><path d="m11 38a1 1 0 0 1 -1-1v-5.382a1.987 1.987 0 0 1 1.106-1.789l1.447-.724a1 1 0 0 1 .894 1.79l-1.447.723v5.382a1 1 0 0 1 -1 1z"/><path d="m53 38a1 1 0 0 1 -1-1v-5.382l-1.447-.718a1 1 0 0 1 .894-1.79l1.448.724a1.988 1.988 0 0 1 1.105 1.784v5.382a1 1 0 0 1 -1 1z"/></g><circle cx="32" cy="53" fill="#ffb74f" r="8"/><circle cx="53" cy="44" fill="#ffb74f" r="8"/><circle cx="11" cy="44" fill="#ffb74f" r="8"/><path d="m46.385 19.513a1 1 0 0 1 -1.148-.592l-1.7-4.1a1 1 0 0 1 .393-1.23 5.881 5.881 0 0 0 1.261-2.438l-2.34-2.34a5.881 5.881 0 0 0 -2.438 1.261 1 1 0 0 1 -1.23.393l-4.1-1.7a1 1 0 0 1 -.592-1.148 5.882 5.882 0 0 0 -.836-2.619h-3.31a5.882 5.882 0 0 0 -.832 2.615 1 1 0 0 1 -.592 1.148l-4.1 1.7a1 1 0 0 1 -1.23-.393 5.881 5.881 0 0 0 -2.438-1.261l-2.34 2.34a5.881 5.881 0 0 0 1.261 2.438 1 1 0 0 1 .393 1.23l-1.7 4.1a1 1 0 0 1 -1.148.592 5.779 5.779 0 0 0 -2.619.836v3.31a5.8 5.8 0 0 0 2.615.832 1 1 0 0 1 1.148.592l1.7 4.1a1 1 0 0 1 -.393 1.23 5.881 5.881 0 0 0 -1.261 2.438l2.34 2.34a5.881 5.881 0 0 0 2.438-1.261 1.006 1.006 0 0 1 1.23-.393l4.1 1.7a1 1 0 0 1 .592 1.148 5.882 5.882 0 0 0 .836 2.619h3.31a5.882 5.882 0 0 0 .832-2.615 1 1 0 0 1 .592-1.148l4.1-1.7a1 1 0 0 1 1.23.393 5.881 5.881 0 0 0 2.438 1.261l2.34-2.34a5.881 5.881 0 0 0 -1.261-2.438 1 1 0 0 1 -.393-1.23l1.7-4.1a1 1 0 0 1 1.148-.592 5.823 5.823 0 0 0 2.619-.836v-3.31a5.806 5.806 0 0 0 -2.615-.832zm-14.385 12.487a10 10 0 1 1 10-10 10.011 10.011 0 0 1 -10 10z" fill="none"/><circle cx="32" cy="22" fill="none" r="8"/><path d="m50.522 18.91a10.4 10.4 0 0 0 -3.7-1.392l-1.171-2.829a10.4 10.4 0 0 0 1.633-3.6 1 1 0 0 0 -.264-.942l-3.167-3.165a1 1 0 0 0 -.942-.264 10.4 10.4 0 0 0 -3.6 1.633l-2.829-1.171a10.4 10.4 0 0 0 -1.392-3.7 1 1 0 0 0 -.853-.48h-4.474a1 1 0 0 0 -.853.478 10.4 10.4 0 0 0 -1.392 3.7l-2.829 1.173a10.4 10.4 0 0 0 -3.6-1.633.994.994 0 0 0 -.942.264l-3.165 3.165a1 1 0 0 0 -.264.942 10.4 10.4 0 0 0 1.633 3.6l-1.171 2.829a10.4 10.4 0 0 0 -3.7 1.392 1 1 0 0 0 -.478.853v4.474a1 1 0 0 0 .478.853 10.4 10.4 0 0 0 3.7 1.392l1.171 2.829a10.4 10.4 0 0 0 -1.633 3.6 1 1 0 0 0 .264.942l3.165 3.165a1 1 0 0 0 .942.264 10.4 10.4 0 0 0 3.6-1.633l2.829 1.171a10.4 10.4 0 0 0 1.392 3.7 1 1 0 0 0 .853.478h4.474a1 1 0 0 0 .853-.478 10.4 10.4 0 0 0 1.392-3.7l2.829-1.171a10.4 10.4 0 0 0 3.6 1.633 1 1 0 0 0 .942-.264l3.165-3.165a1 1 0 0 0 .264-.942 10.4 10.4 0 0 0 -1.633-3.6l1.171-2.829a10.4 10.4 0 0 0 3.7-1.392 1 1 0 0 0 .48-.853v-4.474a1 1 0 0 0 -.478-.853zm-18.522 13.09a10 10 0 1 1 10-10 10.011 10.011 0 0 1 -10 10z" fill="#ffa91f"/><path d="m32 28a1 1 0 0 1 -.856-1.515l2.089-3.485h-4.233a1 1 0 0 1 -.857-1.515l3-5a1 1 0 0 1 1.714 1.03l-2.09 3.485h4.233a1 1 0 0 1 .857 1.515l-3 5a1 1 0 0 1 -.857.485z" fill="#ffcf00"/><circle cx="32" cy="53" fill="#ffe670" r="4"/><circle cx="53" cy="44" fill="#ffe670" r="4"/><circle cx="11" cy="44" fill="#ffe670" r="4"/></svg>