<svg enable-background="new 0 0 100 100" height="512" viewBox="0 0 100 100" width="512" xmlns="http://www.w3.org/2000/svg"><path d="m87.1134644 83.1481934h-74.2269288c-1.987854 0-3.5992432 1.6113281-3.5992432 3.5991211s1.6113892 3.5993652 3.5992432 3.5993652h74.2269287c1.987793 0 3.5992432-1.6115723 3.5992432-3.5993652s-1.6114502-3.5991211-3.5992431-3.5991211z" fill="#41a28d"/><path d="m85.9545135 36.2075615c0-2.2222633-1.8014984-4.0237579-4.0238953-4.0237579h-18.9827308v12.9530792h-23.2876663v-12.9530792h-21.5909004c-2.222332 0-4.0238924 1.8014946-4.0238924 4.0237579v46.9407082h27.8388977c-.0146027.0847321-.0263138.170517-.0263138.259201 0 .8436432.6902962 1.5338745 1.534008 1.5338745h13.2159615c.8437119 0 1.534008-.6902313 1.534008-1.5338745 0-.0886841-.0117073-.174469-.0263138-.259201h27.8388367v-46.9407082z" fill="#e6e7e8"/><path d="m62.9478874 36.495182v8.6417008h-23.2876663v-8.6417008h-21.3034801v42.3422356h63.2865238v-42.3422356z" fill="#509fd7"/><path d="m73.1314087 30.6833496h-2.2000122c-.4299927 0-.789978-.3100586-.8699951-.7299805-.2000122-1.0700684-.4799805-2.1101074-.8300171-3.1101074-.1499634-.4099121.0100098-.8601074.3800049-1.0700684l1.9100342-1.0998535c.4199829-.25.5599976-.7800293.3200073-1.1999512l-2.1000367-3.6401366c-.2399902-.4199219-.7799683-.5600586-1.2000122-.3198242l-1.9099731 1.1098633c-.3699951.2099609-.8400269.1201172-1.1199951-.1999512-.6900024-.8200684-1.4500122-1.5800781-2.2700195-2.2800293-.3300171-.2800293-.4199829-.75-.2000122-1.1201172l1.1000366-1.9099121c.2399902-.4199219.0999756-.9599609-.3200073-1.1999512l-3.6300049-2.1000977c-.4199829-.2399902-.960022-.0898438-1.2000122.3300781l-1.0999756 1.8999023c-.2200317.380127-.6700439.5300293-1.0700073.3901367-1.0100098-.3601074-2.0400391-.6401367-3.1099854-.8400879-.4200439-.079834-.7400513-.4299316-.7400513-.8601074v-2.2099609c0-.4799805-.3899536-.869873-.8699951-.869873h-4.1999512c-.4800415 0-.8800049.3898926-.8800049.869873v2.2099609c0 .4301758-.3099976.7802734-.7300415.8601074-1.0700073.1999512-2.1099854.4799805-3.1099854.8400879-.4099731.1398926-.8499756-.0100098-1.0700073-.3901367l-1.0999756-1.8999023c-.2399902-.4199219-.7800293-.5700684-1.2000122-.3300781l-3.6300049 2.1000977c-.4199829.2399902-.5700073.7800293-.3200073 1.1999512l1.1000366 1.9099121c.2199707.3701172.1300049.8400879-.2000122 1.1201172-.8200073.6999512-1.5800171 1.4599609-2.2800293 2.2800293-.2799683.3200684-.7399902.4099121-1.1099854.1999512l-1.9199829-1.1098633c-.4200439-.2402344-.9500122-.1000977-1.1900024.3198242l-2.1000366 3.6401367c-.2399902.4199219-.0999756.9499512.3200073 1.1999512l1.9100342 1.0998535c.3699951.2099609.5199585.6601562.3800049 1.0700684-.3600464 1-.6400146 2.0400391-.8300171 3.1101074-.0800171.4199219-.4400024.7299805-.8699951.7299805h-2.2000122c-.4899902 0-.8800049.3898926-.8800049.8798828v4.1899414c0 .4902344.3900146.880127.8800049.880127h2.2000122c.4299927 0 .789978.3100586.8699951.7299805.1900024 1.0700684.4699707 2.1101074.8300171 3.1101074.1399536.4099121-.0100098.8598633-.3800049 1.0698242l-1.9100342 1.1000977c-.4199829.25-.5599976.7800293-.3200073 1.1999512l2.1000366 3.630127c.2399902.4199219.7699585.5698242 1.1900024.329834l1.9199829-1.1098633c.3699951-.2102051.8300171-.1201172 1.1099854.1999512.7000122.8198242 1.460022 1.5800781 2.2800293 2.2800293.3300171.2800293.4199829.75.2000122 1.119873l-1.1000366 1.9101562c-.25.4199219-.0999756.9599609.3200073 1.1999512l3.6300049 2.0900879c.4199829.25.960022.0998535 1.2000122-.3200684l1.0999756-1.9001465c.2200317-.3798828.6600342-.5297852 1.0700073-.3898926 1 .3601074 2.039978.6398926 3.1099854.8400879.4200439.079834.7300415.4299316.7300415.8598633v2.1999512c0 .4899902.3999634.880127.8800049.880127h4.1999512c.4800415 0 .8699951-.3901367.8699951-.880127v-2.1999513c0-.4299316.3200073-.7800293.7400513-.8598633 1.0699463-.2001953 2.0999756-.4799805 3.1099854-.8400879.3999634-.1398926.8499756.0100098 1.0700073.3898926l1.0999756 1.9001465c.2399902.4199219.7800293.5700684 1.2000122.3200684l3.6300049-2.0900879c.4199829-.2399902.5599976-.7800293.3200073-1.1999512l-1.1000366-1.9101562c-.2199707-.369873-.1300049-.8398438.2000122-1.119873.8200073-.6999512 1.5800171-1.4602051 2.2700195-2.2800293.2799683-.3200684.75-.4101562 1.1199951-.1999512l1.9099731 1.1098633c.4200439.2399902.960022.0900879 1.2000122-.329834l2.1000366-3.630127c.2399902-.4199219.0999756-.9499512-.3200073-1.1999512l-1.9100342-1.1000977c-.3699951-.2099609-.5299683-.6599121-.3800049-1.0698242.3500366-1 .6300049-2.0400391.8300171-3.1101074.0800171-.4199219.4400024-.7299805.8699951-.7299805h2.2000122c.4799805 0 .8800049-.3898926.8800049-.880127v-4.1899414c.0000001-.4899902-.4000243-.8798828-.8800048-.8798828zm-23.1300049 11.3100586c-4.6099854 0-8.3400269-3.7299805-8.3400269-8.3400879 0-4.6000977 3.7300415-8.3300781 8.3400269-8.3300781 4.5999756 0 8.3400269 3.7299805 8.3400269 8.3300781 0 4.6101074-3.7400513 8.3400879-8.3400269 8.3400879z" fill="#344e5c"/><path d="m50.0000305 48.8664055c-8.3860435 0-15.2084198-6.8223763-15.2084198-15.2084198s6.8223763-15.2084198 15.2084198-15.2084198 15.2084198 6.8223763 15.2084198 15.2084198-6.8223762 15.2084198-15.2084198 15.2084198zm0-27.517437c-6.7873383 0-12.3090172 5.5220337-12.3090172 12.3090172s5.5216789 12.3090172 12.3090172 12.3090172 12.3090172-5.5220337 12.3090172-12.3090172-5.5216827-12.3090172-12.3090172-12.3090172z" fill="#445d69"/></svg>