<?xml version="1.0" encoding="utf-8"?>
<!-- Generator: Adobe Illustrator 22.1.0, SVG Export Plug-In . SVG Version: 6.00 Build 0)  -->
<svg xmlns="http://www.w3.org/2000/svg" xmlns:xlink="http://www.w3.org/1999/xlink" version="1.1" x="0px" y="0px" viewBox="0 0 32 32" style="enable-background:new 0 0 32 32;" xml:space="preserve" width="512" height="512">
<style type="text/css">
	.st0{fill:#EDEFF0;}
	.st1{fill:#CFD8DC;}
	.st2{fill:#FAA629;}
	.st3{fill:#607D8B;}
	.st4{fill:#546F7A;}
	.st5{fill:#F8981D;}
	.st6{fill:#66BB6A;}
	.st7{fill:#4DAF4E;}
	.st8{fill:#37474F;}
	.st9{fill:#263238;}
	.st10{fill:#B0BEC5;}
	.st11{fill:#90A4AE;}
	.st12{fill:#78909C;}
	.st13{fill:#F37046;}
	.st14{display:none;}
</style>



<g id="_x31_7_Secured">
	<g>
		<path class="st6" d="M16,1.9355469L4,6.2998047V16c0,10.9609375,11.6445313,13.9423828,11.7617188,13.9716797L16,30.0292969    l0.2382813-0.0576172C16.3554688,29.9423828,28,26.9609375,28,16V6.2998047L16,1.9355469z"/>
		<path class="st7" d="M16,1.9355469v28.09375l0.2382813-0.0576172C16.3554688,29.9423828,28,26.9609375,28,16V6.2998047    L16,1.9355469z"/>
		<g>
			<g>
				<path class="st8" d="M19.6000977,15.0664063h-7.2001953v-4.4667969C12.3999023,8.6152344,14.0151367,7,16,7      s3.6000977,1.6152344,3.6000977,3.5996094V15.0664063z M14.3999023,13.0664063h3.2001953v-2.4667969      C17.6000977,9.7177734,16.8823242,9,16,9s-1.6000977,0.7177734-1.6000977,1.5996094V13.0664063z"/>
			</g>
		</g>
		<path class="st9" d="M16,7v2c0.8823242,0,1.6000977,0.7177734,1.6000977,1.5996094v2.4667969H16v2h3.6000977v-4.4667969    C19.6000977,8.6152344,17.9848633,7,16,7z"/>
		<rect x="10.6665039" y="13.0664063" class="st0" width="10.6669922" height="8.9335938"/>
		<rect x="16" y="13.0664063" class="st1" width="5.3334961" height="8.9335938"/>
		<circle class="st3" cx="16" cy="17.5333328" r="0.8666667"/>
		<path class="st4" d="M16,16.666626v1.7333374c0.4786377,0,0.8666382-0.3880005,0.8666382-0.8666382    S16.4786377,16.666626,16,16.666626z"/>
	</g>
</g>

















</svg>
